# Wavefront OBJ file automatically generated by Tiled2Unity

# Vertices (Count = 425)
v 0 -0.32 0
v -0.32 -0.32 0
v -0.32 0 0
v 0 0 0
v -0.64 -0.32 0
v -0.96 -0.32 0
v -0.96 0 0
v -0.64 0 0
v -1.28 -0.32 0
v -1.28 0 0
v -1.6 -0.32 0
v -1.6 0 0
v -1.92 -0.32 0
v -1.92 0 0
v -2.24 -0.32 0
v -2.24 0 0
v -2.56 -0.32 0
v -2.56 0 0
v -3.2 -0.32 0
v -3.52 -0.32 0
v -3.52 0 0
v -3.2 0 0
v -4.8 -0.32 0
v -5.12 -0.32 0
v -5.12 0 0
v -4.8 0 0
v -5.44 -0.32 0
v -5.76 -0.32 0
v -5.76 0 0
v -5.44 0 0
v -6.08 -0.32 0
v -6.08 0 0
v -6.4 -0.32 0
v -6.4 0 0
v -6.72 -0.32 0
v -6.72 0 0
v -7.04 -0.32 0
v -7.04 0 0
v -7.36 -0.32 0
v -7.36 0 0
v -7.68 -0.32 0
v -7.68 0 0
v 0 -0.64 0
v -0.32 -0.64 0
v -0.64 -0.64 0
v -0.96 -0.64 0
v -1.28 -0.64 0
v -1.6 -0.64 0
v -1.92 -0.64 0
v -2.24 -0.64 0
v -2.56 -0.64 0
v -2.88 -0.64 0
v -2.88 -0.32 0
v -3.2 -0.64 0
v -3.52 -0.64 0
v -4.48 -0.64 0
v -4.8 -0.64 0
v -4.48 -0.32 0
v -5.12 -0.64 0
v -5.44 -0.64 0
v -5.76 -0.64 0
v -6.08 -0.64 0
v -6.4 -0.64 0
v -6.72 -0.64 0
v -7.04 -0.64 0
v -7.36 -0.64 0
v -7.68 -0.64 0
v 0 -0.96 0
v -0.32 -0.96 0
v -0.64 -0.96 0
v -0.96 -0.96 0
v -1.28 -0.96 0
v -1.6 -0.96 0
v -1.92 -0.96 0
v -2.24 -0.96 0
v -2.56 -0.96 0
v -2.88 -0.96 0
v -3.2 -0.96 0
v -3.52 -0.96 0
v -4.48 -0.96 0
v -4.8 -0.96 0
v -5.44 -0.96 0
v -5.76 -0.96 0
v -6.08 -0.96 0
v -6.4 -0.96 0
v -6.72 -0.96 0
v -7.04 -0.96 0
v -7.36 -0.96 0
v -7.68 -0.96 0
v 0 -1.28 0
v -0.32 -1.28 0
v -0.96 -1.28 0
v -1.28 -1.28 0
v -1.6 -1.28 0
v -1.92 -1.28 0
v -2.24 -1.28 0
v -2.56 -1.28 0
v -4.48 -1.28 0
v -4.8 -1.28 0
v -5.44 -1.28 0
v -5.76 -1.28 0
v -6.08 -1.28 0
v -6.4 -1.28 0
v -6.72 -1.28 0
v -7.04 -1.28 0
v -7.36 -1.28 0
v -7.68 -1.28 0
v 0 -1.6 0
v -0.32 -1.6 0
v -0.64 -1.6 0
v -0.96 -1.6 0
v -0.64 -1.28 0
v -1.28 -1.6 0
v -1.6 -1.6 0
v -1.92 -1.6 0
v -2.24 -1.6 0
v -2.56 -1.6 0
v -2.88 -1.6 0
v -2.88 -1.28 0
v -3.2 -1.6 0
v -3.2 -1.28 0
v -3.52 -1.6 0
v -3.52 -1.28 0
v -3.84 -1.6 0
v -3.84 -1.28 0
v -4.16 -1.6 0
v -4.16 -1.28 0
v -4.48 -1.6 0
v -4.8 -1.6 0
v -5.12 -1.6 0
v -5.12 -1.28 0
v -5.44 -1.6 0
v -5.76 -1.6 0
v -6.08 -1.6 0
v -6.4 -1.6 0
v -6.72 -1.6 0
v -7.04 -1.6 0
v -7.36 -1.6 0
v -7.68 -1.6 0
v 0 -1.92 0
v -0.32 -1.92 0
v -0.64 -1.92 0
v -0.96 -1.92 0
v -1.28 -1.92 0
v -1.6 -1.92 0
v -1.92 -1.92 0
v -2.24 -1.92 0
v -2.56 -1.92 0
v -2.88 -1.92 0
v -3.2 -1.92 0
v -3.52 -1.92 0
v -3.84 -1.92 0
v -4.16 -1.92 0
v -4.48 -1.92 0
v -4.8 -1.92 0
v -5.12 -1.92 0
v -5.44 -1.92 0
v -6.08 -1.92 0
v -6.4 -1.92 0
v -6.72 -1.92 0
v -7.04 -1.92 0
v -7.36 -1.92 0
v -7.68 -1.92 0
v 0 -2.24 0
v -0.32 -2.24 0
v -0.64 -2.24 0
v -0.96 -2.24 0
v -1.28 -2.24 0
v -1.6 -2.24 0
v -1.92 -2.24 0
v -2.24 -2.24 0
v -2.56 -2.24 0
v -2.88 -2.24 0
v -3.2 -2.24 0
v -3.52 -2.24 0
v -3.84 -2.24 0
v -4.16 -2.24 0
v -4.48 -2.24 0
v -4.8 -2.24 0
v -5.12 -2.24 0
v -5.44 -2.24 0
v -5.76 -2.24 0
v -5.76 -1.92 0
v -6.08 -2.24 0
v -6.4 -2.24 0
v -6.72 -2.24 0
v -7.04 -2.24 0
v -7.36 -2.24 0
v -7.68 -2.24 0
v -0.96 -2.56 0
v -1.28 -2.56 0
v -1.6 -2.56 0
v -2.24 -2.56 0
v -2.56 -2.56 0
v -2.88 -2.56 0
v -3.2 -2.56 0
v -3.52 -2.56 0
v -3.84 -2.56 0
v -4.16 -2.56 0
v -4.48 -2.56 0
v -4.8 -2.56 0
v -5.12 -2.56 0
v -5.44 -2.56 0
v -5.76 -2.56 0
v -6.08 -2.56 0
v -6.4 -2.56 0
v -6.72 -2.56 0
v -7.04 -2.56 0
v -7.36 -2.56 0
v -7.68 -2.56 0
v 0 -2.88 0
v -0.32 -2.88 0
v -0.32 -2.56 0
v 0 -2.56 0
v -0.64 -2.88 0
v -0.64 -2.56 0
v -0.96 -2.88 0
v -1.28 -2.88 0
v -1.6 -2.88 0
v -1.92 -2.88 0
v -1.92 -2.56 0
v -2.24 -2.88 0
v -2.56 -2.88 0
v -2.88 -2.88 0
v -3.2 -2.88 0
v -3.52 -2.88 0
v -3.84 -2.88 0
v -4.16 -2.88 0
v -4.48 -2.88 0
v -4.8 -2.88 0
v -5.12 -2.88 0
v -5.44 -2.88 0
v -5.76 -2.88 0
v -6.08 -2.88 0
v -6.4 -2.88 0
v -6.72 -2.88 0
v -7.04 -2.88 0
v -7.36 -2.88 0
v 0 -3.2 0
v -0.32 -3.2 0
v -0.64 -3.2 0
v -0.96 -3.2 0
v -1.28 -3.2 0
v -1.6 -3.2 0
v -1.92 -3.2 0
v -2.24 -3.2 0
v -2.56 -3.2 0
v -2.88 -3.2 0
v -3.2 -3.2 0
v -3.52 -3.2 0
v -4.16 -3.2 0
v -4.48 -3.2 0
v -4.8 -3.2 0
v -5.12 -3.2 0
v -5.44 -3.2 0
v -5.76 -3.2 0
v -6.08 -3.2 0
v -6.4 -3.2 0
v -6.72 -3.2 0
v -7.04 -3.2 0
v -7.36 -3.2 0
v 0 -3.52 0
v -0.32 -3.52 0
v -0.64 -3.52 0
v -0.96 -3.52 0
v -1.28 -3.52 0
v -1.6 -3.52 0
v -1.92 -3.52 0
v -2.24 -3.52 0
v -2.56 -3.52 0
v -2.88 -3.52 0
v -3.2 -3.52 0
v -4.48 -3.52 0
v -4.8 -3.52 0
v -5.12 -3.52 0
v -5.44 -3.52 0
v -5.76 -3.52 0
v -6.08 -3.52 0
v -6.4 -3.52 0
v -6.72 -3.52 0
v -7.04 -3.52 0
v -7.36 -3.52 0
v -7.68 -3.52 0
v -7.68 -3.2 0
v 0 -3.84 0
v -0.32 -3.84 0
v -0.64 -3.84 0
v -0.96 -3.84 0
v -1.28 -3.84 0
v -1.6 -3.84 0
v -1.92 -3.84 0
v -2.24 -3.84 0
v -2.56 -3.84 0
v -2.88 -3.84 0
v -4.8 -3.84 0
v -5.12 -3.84 0
v -5.44 -3.84 0
v -5.76 -3.84 0
v -6.08 -3.84 0
v -6.4 -3.84 0
v -6.72 -3.84 0
v -7.04 -3.84 0
v -7.36 -3.84 0
v -7.68 -3.84 0
v 0 -4.16 0
v -0.32 -4.16 0
v -0.96 -4.16 0
v -1.28 -4.16 0
v -1.6 -4.16 0
v -1.92 -4.16 0
v -2.24 -4.16 0
v -2.56 -4.16 0
v -2.88 -4.16 0
v -3.2 -4.16 0
v -3.2 -3.84 0
v -3.52 -4.16 0
v -3.52 -3.84 0
v -3.84 -4.16 0
v -3.84 -3.84 0
v -4.16 -4.16 0
v -4.16 -3.84 0
v -4.48 -4.16 0
v -4.48 -3.84 0
v -4.8 -4.16 0
v -5.12 -4.16 0
v -5.44 -4.16 0
v -5.76 -4.16 0
v -6.08 -4.16 0
v -6.4 -4.16 0
v -6.72 -4.16 0
v -7.04 -4.16 0
v -7.36 -4.16 0
v 0 -4.48 0
v -0.32 -4.48 0
v -0.64 -4.48 0
v -0.64 -4.16 0
v -0.96 -4.48 0
v -1.28 -4.48 0
v -1.6 -4.48 0
v -1.92 -4.48 0
v -2.24 -4.48 0
v -2.56 -4.48 0
v -5.76 -4.48 0
v -6.08 -4.48 0
v -6.4 -4.48 0
v -6.72 -4.48 0
v -7.04 -4.48 0
v -7.36 -4.48 0
v -7.68 -4.48 0
v -7.68 -4.16 0
v 0 -4.8 0
v -0.32 -4.8 0
v -0.64 -4.8 0
v -0.96 -4.8 0
v -1.28 -4.8 0
v -1.6 -4.8 0
v -1.92 -4.8 0
v -2.24 -4.8 0
v -2.56 -4.8 0
v -4.48 -4.8 0
v -4.8 -4.8 0
v -4.8 -4.48 0
v -4.48 -4.48 0
v -5.12 -4.8 0
v -5.12 -4.48 0
v -5.76 -4.8 0
v -6.08 -4.8 0
v -6.4 -4.8 0
v -6.72 -4.8 0
v -7.04 -4.8 0
v -7.36 -4.8 0
v -7.68 -4.8 0
v 0 -5.12 0
v -0.32 -5.12 0
v -0.64 -5.12 0
v -0.96 -5.12 0
v -1.28 -5.12 0
v -1.6 -5.12 0
v -1.92 -5.12 0
v -2.24 -5.12 0
v -2.56 -5.12 0
v -4.8 -5.12 0
v -5.12 -5.12 0
v -5.44 -5.12 0
v -5.44 -4.8 0
v -6.08 -5.12 0
v -6.4 -5.12 0
v -6.72 -5.12 0
v -7.04 -5.12 0
v -7.36 -5.12 0
v -2.88 0 0
v -4.16 -0.32 0
v -4.48 0 0
v -4.16 0 0
v -4.16 -0.64 0
v -4.16 -0.96 0
v -5.12 -0.96 0
v -3.84 -0.96 0
v -7.68 -2.88 0
v -2.88 -4.48 0
v -5.44 -4.48 0
v -2.88 -4.8 0
v -2.88 -5.12 0
v -5.76 -5.12 0
v -3.84 -0.32 0
v -3.84 0 0
v -3.84 -0.64 0
v -3.84 -3.2 0
v -3.52 -3.52 0
v -3.84 -3.52 0
v -4.16 -3.52 0
v -3.2 -4.48 0
v -3.52 -4.48 0
v -3.84 -4.48 0
v -4.16 -4.48 0
v -3.2 -4.8 0
v -3.52 -4.8 0
v -3.84 -4.8 0
v -4.16 -4.8 0
v -3.2 -5.12 0
v -3.52 -5.12 0
v -3.84 -5.12 0
v -4.16 -5.12 0
v -4.48 -5.12 0
v -7.68 -5.12 0

# Texture cooridinates (Count = 22)
vt 0.3334554 0.3334554
vt 0.6665446 0.3334554
vt 0.6665446 0.4998779
vt 0.3334554 0.4998779
vt 0.6667888 0.0001220703
vt 0.9998779 0.0001220703
vt 0.9998779 0.1665446
vt 0.6667888 0.1665446
vt 0.0001220703 0.0001220703
vt 0.3332113 0.0001220703
vt 0.3332113 0.1665446
vt 0.0001220703 0.1665446
vt 0.3334554 0.0001220703
vt 0.6665446 0.0001220703
vt 0.6665446 0.1665446
vt 0.3334554 0.1665446
vt 0.4998779 0.0001220703
vt 0.4998779 0.9998779
vt 0.0001220703 0.9998779
vt 0.0001220703 0.8334554
vt 0.3332113 0.8334554
vt 0.3332113 0.9998779

# Normal
vn 0 0 -1

# Groups (Count = 2)

g mesh_0001
f 1/1/1 2/2/1 3/3/1 4/4/1
f 5/5/1 6/6/1 7/7/1 8/8/1
f 6/9/1 9/10/1 10/11/1 7/12/1
f 9/9/1 11/10/1 12/11/1 10/12/1
f 11/9/1 13/10/1 14/11/1 12/12/1
f 13/5/1 15/6/1 16/7/1 14/8/1
f 15/1/1 17/2/1 18/3/1 16/4/1
f 19/13/1 20/14/1 21/15/1 22/16/1
f 23/9/1 24/10/1 25/11/1 26/12/1
f 27/5/1 28/6/1 29/7/1 30/8/1
f 28/9/1 31/10/1 32/11/1 29/12/1
f 31/9/1 33/10/1 34/11/1 32/12/1
f 33/5/1 35/6/1 36/7/1 34/8/1
f 35/9/1 37/10/1 38/11/1 36/12/1
f 37/5/1 39/6/1 40/7/1 38/8/1
f 39/5/1 41/6/1 42/7/1 40/8/1
f 43/9/1 44/10/1 2/11/1 1/12/1
f 44/5/1 45/6/1 5/7/1 2/8/1
f 45/5/1 46/6/1 6/7/1 5/8/1
f 47/5/1 48/6/1 11/7/1 9/8/1
f 48/13/1 49/14/1 13/15/1 11/16/1
f 49/1/1 50/2/1 15/3/1 13/4/1
f 50/1/1 51/2/1 17/3/1 15/4/1
f 51/9/1 52/10/1 53/11/1 17/12/1
f 52/1/1 54/2/1 19/3/1 53/4/1
f 54/13/1 55/14/1 20/15/1 19/16/1
f 56/5/1 57/6/1 23/7/1 58/8/1
f 59/9/1 60/10/1 27/11/1 24/12/1
f 60/5/1 61/6/1 28/7/1 27/8/1
f 62/5/1 63/6/1 33/7/1 31/8/1
f 63/5/1 64/6/1 35/7/1 33/8/1
f 64/9/1 65/10/1 37/11/1 35/12/1
f 65/5/1 66/6/1 39/7/1 37/8/1
f 66/9/1 67/10/1 41/11/1 39/12/1
f 68/5/1 69/6/1 44/7/1 43/8/1
f 69/9/1 70/10/1 45/11/1 44/12/1
f 70/5/1 71/6/1 46/7/1 45/8/1
f 71/13/1 72/14/1 47/15/1 46/16/1
f 72/1/1 73/2/1 48/3/1 47/4/1
f 73/5/1 74/6/1 49/7/1 48/8/1
f 74/9/1 75/10/1 50/11/1 49/12/1
f 75/1/1 76/2/1 51/3/1 50/4/1
f 76/5/1 77/6/1 52/7/1 51/8/1
f 77/5/1 78/6/1 54/7/1 52/8/1
f 78/13/1 79/14/1 55/15/1 54/16/1
f 80/13/1 81/14/1 57/15/1 56/16/1
f 82/9/1 83/10/1 61/11/1 60/12/1
f 83/9/1 84/10/1 62/11/1 61/12/1
f 84/5/1 85/6/1 63/7/1 62/8/1
f 85/1/1 86/2/1 64/3/1 63/4/1
f 86/1/1 87/2/1 65/3/1 64/4/1
f 88/1/1 89/2/1 67/3/1 66/4/1
f 90/1/1 91/2/1 69/3/1 68/4/1
f 92/9/1 93/10/1 72/11/1 71/12/1
f 93/9/1 94/10/1 73/11/1 72/12/1
f 95/5/1 96/6/1 75/7/1 74/8/1
f 96/9/1 97/10/1 76/11/1 75/12/1
f 98/9/1 99/10/1 81/11/1 80/12/1
f 100/9/1 101/10/1 83/11/1 82/12/1
f 101/9/1 102/10/1 84/11/1 83/12/1
f 102/5/1 103/6/1 85/7/1 84/8/1
f 103/5/1 104/6/1 86/7/1 85/8/1
f 104/13/1 105/14/1 87/15/1 86/16/1
f 105/5/1 106/6/1 88/7/1 87/8/1
f 106/1/1 107/2/1 89/3/1 88/4/1
f 108/13/1 109/14/1 91/15/1 90/16/1
f 110/9/1 111/10/1 92/11/1 112/12/1
f 111/9/1 113/10/1 93/11/1 92/12/1
f 113/9/1 114/10/1 94/11/1 93/12/1
f 114/9/1 115/10/1 95/11/1 94/12/1
f 115/9/1 116/10/1 96/11/1 95/12/1
f 117/5/1 118/6/1 119/7/1 97/8/1
f 118/1/1 120/2/1 121/3/1 119/4/1
f 120/5/1 122/6/1 123/7/1 121/8/1
f 122/1/1 124/2/1 125/3/1 123/4/1
f 124/1/1 126/2/1 127/3/1 125/4/1
f 126/5/1 128/6/1 98/7/1 127/8/1
f 128/5/1 129/6/1 99/7/1 98/8/1
f 129/13/1 130/14/1 131/15/1 99/16/1
f 130/5/1 132/6/1 100/7/1 131/8/1
f 133/1/1 134/2/1 102/3/1 101/4/1
f 134/1/1 135/2/1 103/3/1 102/4/1
f 136/13/1 137/14/1 105/15/1 104/16/1
f 137/1/1 138/2/1 106/3/1 105/4/1
f 138/9/1 139/10/1 107/11/1 106/12/1
f 140/5/1 141/6/1 109/7/1 108/8/1
f 141/9/1 142/10/1 110/11/1 109/12/1
f 142/1/1 143/2/1 111/3/1 110/4/1
f 143/9/1 144/10/1 113/11/1 111/12/1
f 145/1/1 146/2/1 115/3/1 114/4/1
f 146/13/1 147/14/1 116/15/1 115/16/1
f 147/5/1 148/6/1 117/7/1 116/8/1
f 148/1/1 149/2/1 118/3/1 117/4/1
f 149/9/1 150/10/1 120/11/1 118/12/1
f 150/9/1 151/10/1 122/11/1 120/12/1
f 151/1/1 152/2/1 124/3/1 122/4/1
f 152/1/1 153/2/1 126/3/1 124/4/1
f 153/9/1 154/10/1 128/11/1 126/12/1
f 154/5/1 155/6/1 129/7/1 128/8/1
f 156/9/1 157/10/1 132/11/1 130/12/1
f 158/1/1 159/2/1 135/3/1 134/4/1
f 159/9/1 160/10/1 136/11/1 135/12/1
f 160/13/1 161/14/1 137/15/1 136/16/1
f 161/5/1 162/6/1 138/7/1 137/8/1
f 162/13/1 163/14/1 139/15/1 138/16/1
f 164/5/1 165/6/1 141/7/1 140/8/1
f 165/5/1 166/6/1 142/7/1 141/8/1
f 166/13/1 167/14/1 143/15/1 142/16/1
f 167/13/1 168/14/1 144/15/1 143/16/1
f 168/9/1 169/10/1 145/11/1 144/12/1
f 169/13/1 170/14/1 146/15/1 145/16/1
f 170/9/1 171/10/1 147/11/1 146/12/1
f 171/1/1 172/2/1 148/3/1 147/4/1
f 172/9/1 173/10/1 149/11/1 148/12/1
f 173/1/1 174/2/1 150/3/1 149/4/1
f 174/13/1 175/14/1 151/15/1 150/16/1
f 175/1/1 176/2/1 152/3/1 151/4/1
f 176/1/1 177/2/1 153/3/1 152/4/1
f 177/5/1 178/6/1 154/7/1 153/8/1
f 178/13/1 179/14/1 155/15/1 154/16/1
f 179/5/1 180/6/1 156/7/1 155/8/1
f 180/1/1 181/2/1 157/3/1 156/4/1
f 181/1/1 182/2/1 183/3/1 157/4/1
f 182/1/1 184/2/1 158/3/1 183/4/1
f 185/13/1 186/14/1 160/15/1 159/16/1
f 186/13/1 187/14/1 161/15/1 160/16/1
f 187/13/1 188/14/1 162/15/1 161/16/1
f 188/13/1 189/14/1 163/15/1 162/16/1
f 190/5/1 191/6/1 168/7/1 167/8/1
f 191/5/1 192/6/1 169/7/1 168/8/1
f 193/9/1 194/10/1 172/11/1 171/12/1
f 194/13/1 195/14/1 173/15/1 172/16/1
f 195/13/1 196/14/1 174/15/1 173/16/1
f 196/5/1 197/6/1 175/7/1 174/8/1
f 197/5/1 198/6/1 176/7/1 175/8/1
f 198/5/1 199/6/1 177/7/1 176/8/1
f 199/1/1 200/2/1 178/3/1 177/4/1
f 200/9/1 201/10/1 179/11/1 178/12/1
f 201/1/1 202/2/1 180/3/1 179/4/1
f 202/13/1 203/14/1 181/15/1 180/16/1
f 203/5/1 204/6/1 182/7/1 181/8/1
f 204/9/1 205/10/1 184/11/1 182/12/1
f 205/5/1 206/6/1 185/7/1 184/8/1
f 206/5/1 207/6/1 186/7/1 185/8/1
f 207/13/1 208/14/1 187/15/1 186/16/1
f 208/9/1 209/10/1 188/11/1 187/12/1
f 209/13/1 210/14/1 189/15/1 188/16/1
f 211/13/1 212/14/1 213/15/1 214/16/1
f 212/5/1 215/6/1 216/7/1 213/8/1
f 215/13/1 217/14/1 190/15/1 216/16/1
f 217/5/1 218/6/1 191/7/1 190/8/1
f 218/5/1 219/6/1 192/7/1 191/8/1
f 219/13/1 220/14/1 221/15/1 192/16/1
f 220/1/1 222/2/1 193/3/1 221/4/1
f 223/5/1 224/6/1 195/7/1 194/8/1
f 224/9/1 225/10/1 196/11/1 195/12/1
f 225/13/1 226/14/1 197/15/1 196/16/1
f 226/1/1 227/2/1 198/3/1 197/4/1
f 227/9/1 228/10/1 199/11/1 198/12/1
f 228/9/1 229/10/1 200/11/1 199/12/1
f 229/1/1 230/2/1 201/3/1 200/4/1
f 230/13/1 231/14/1 202/15/1 201/16/1
f 231/1/1 232/2/1 203/3/1 202/4/1
f 232/5/1 233/6/1 204/7/1 203/8/1
f 233/9/1 234/10/1 205/11/1 204/12/1
f 234/1/1 235/2/1 206/3/1 205/4/1
f 235/5/1 236/6/1 207/7/1 206/8/1
f 236/9/1 237/10/1 208/11/1 207/12/1
f 237/1/1 238/2/1 209/3/1 208/4/1
f 239/5/1 240/6/1 212/7/1 211/8/1
f 240/13/1 241/14/1 215/15/1 212/16/1
f 241/5/1 242/6/1 217/7/1 215/8/1
f 242/9/1 243/10/1 218/11/1 217/12/1
f 243/1/1 244/2/1 219/3/1 218/4/1
f 244/5/1 245/6/1 220/7/1 219/8/1
f 245/9/1 246/10/1 222/11/1 220/12/1
f 246/13/1 247/14/1 223/15/1 222/16/1
f 247/5/1 248/6/1 224/7/1 223/8/1
f 248/13/1 249/14/1 225/15/1 224/16/1
f 249/5/1 250/6/1 226/7/1 225/8/1
f 251/9/1 252/10/1 229/11/1 228/12/1
f 252/1/1 253/2/1 230/3/1 229/4/1
f 253/1/1 254/2/1 231/3/1 230/4/1
f 254/13/1 255/14/1 232/15/1 231/16/1
f 255/1/1 256/2/1 233/3/1 232/4/1
f 256/1/1 257/2/1 234/3/1 233/4/1
f 258/13/1 259/14/1 236/15/1 235/16/1
f 259/13/1 260/14/1 237/15/1 236/16/1
f 260/13/1 261/14/1 238/15/1 237/16/1
f 262/5/1 263/6/1 240/7/1 239/8/1
f 263/13/1 264/14/1 241/15/1 240/16/1
f 265/5/1 266/6/1 243/7/1 242/8/1
f 266/5/1 267/6/1 244/7/1 243/8/1
f 267/5/1 268/6/1 245/7/1 244/8/1
f 268/9/1 269/10/1 246/11/1 245/12/1
f 270/9/1 271/10/1 248/11/1 247/12/1
f 271/9/1 272/10/1 249/11/1 248/12/1
f 273/13/1 274/14/1 253/15/1 252/16/1
f 274/5/1 275/6/1 254/7/1 253/8/1
f 275/1/1 276/2/1 255/3/1 254/4/1
f 276/9/1 277/10/1 256/11/1 255/12/1
f 277/9/1 278/10/1 257/11/1 256/12/1
f 278/1/1 279/2/1 258/3/1 257/4/1
f 279/9/1 280/10/1 259/11/1 258/12/1
f 280/13/1 281/14/1 260/15/1 259/16/1
f 281/13/1 282/14/1 261/15/1 260/16/1
f 282/5/1 283/6/1 284/7/1 261/8/1
f 285/5/1 286/6/1 263/7/1 262/8/1
f 287/1/1 288/2/1 265/3/1 264/4/1
f 288/5/1 289/6/1 266/7/1 265/8/1
f 289/5/1 290/6/1 267/7/1 266/8/1
f 290/9/1 291/10/1 268/11/1 267/12/1
f 292/13/1 293/14/1 270/15/1 269/16/1
f 293/13/1 294/14/1 271/15/1 270/16/1
f 295/9/1 296/10/1 275/11/1 274/12/1
f 296/1/1 297/2/1 276/3/1 275/4/1
f 297/13/1 298/14/1 277/15/1 276/16/1
f 298/5/1 299/6/1 278/7/1 277/8/1
f 299/9/1 300/10/1 279/11/1 278/12/1
f 300/5/1 301/6/1 280/7/1 279/8/1
f 301/13/1 302/14/1 281/15/1 280/16/1
f 302/13/1 303/14/1 282/15/1 281/16/1
f 303/5/1 304/6/1 283/7/1 282/8/1
f 305/9/1 306/10/1 286/11/1 285/12/1
f 307/1/1 308/2/1 289/3/1 288/4/1
f 308/9/1 309/10/1 290/11/1 289/12/1
f 309/9/1 310/10/1 291/11/1 290/12/1
f 310/13/1 311/14/1 292/15/1 291/16/1
f 311/13/1 312/14/1 293/15/1 292/16/1
f 313/13/1 314/14/1 315/15/1 294/16/1
f 314/13/1 316/14/1 317/15/1 315/16/1
f 316/13/1 318/14/1 319/15/1 317/16/1
f 318/13/1 320/14/1 321/15/1 319/16/1
f 320/13/1 322/14/1 323/15/1 321/16/1
f 322/13/1 324/14/1 295/15/1 323/16/1
f 325/1/1 326/2/1 297/3/1 296/4/1
f 326/5/1 327/6/1 298/7/1 297/8/1
f 327/1/1 328/2/1 299/3/1 298/4/1
f 328/9/1 329/10/1 300/11/1 299/12/1
f 329/1/1 330/2/1 301/3/1 300/4/1
f 330/1/1 331/2/1 302/3/1 301/4/1
f 331/5/1 332/6/1 303/7/1 302/8/1
f 333/5/1 334/6/1 306/7/1 305/8/1
f 334/13/1 335/14/1 336/15/1 306/16/1
f 335/9/1 337/10/1 307/11/1 336/12/1
f 337/1/1 338/2/1 308/3/1 307/4/1
f 338/5/1 339/6/1 309/7/1 308/8/1
f 339/9/1 340/10/1 310/11/1 309/12/1
f 341/13/1 342/14/1 312/15/1 311/16/1
f 343/5/1 344/6/1 328/7/1 327/8/1
f 344/13/1 345/14/1 329/15/1 328/16/1
f 346/5/1 347/6/1 331/7/1 330/8/1
f 347/5/1 348/6/1 332/7/1 331/8/1
f 348/1/1 349/2/1 350/3/1 332/4/1
f 351/9/1 352/10/1 334/11/1 333/12/1
f 352/1/1 353/2/1 335/3/1 334/4/1
f 353/13/1 354/14/1 337/15/1 335/16/1
f 354/1/1 355/2/1 338/3/1 337/4/1
f 356/13/1 357/14/1 340/15/1 339/16/1
f 357/5/1 358/6/1 341/7/1 340/8/1
f 358/13/1 359/14/1 342/15/1 341/16/1
f 360/5/1 361/6/1 362/7/1 363/8/1
f 361/5/1 364/6/1 365/7/1 362/8/1
f 366/9/1 367/10/1 344/11/1 343/12/1
f 367/9/1 368/10/1 345/11/1 344/12/1
f 368/1/1 369/2/1 346/3/1 345/4/1
f 369/5/1 370/6/1 347/7/1 346/8/1
f 370/9/1 371/10/1 348/11/1 347/12/1
f 371/5/1 372/6/1 349/7/1 348/8/1
f 373/5/1 374/6/1 352/7/1 351/8/1
f 374/9/1 375/10/1 353/11/1 352/12/1
f 375/5/1 376/6/1 354/7/1 353/8/1
f 377/5/1 378/6/1 356/7/1 355/8/1
f 378/5/1 379/6/1 357/7/1 356/8/1
f 379/13/1 380/14/1 358/15/1 357/16/1
f 380/9/1 381/10/1 359/11/1 358/12/1
f 382/1/1 383/2/1 364/3/1 361/4/1
f 383/1/1 384/2/1 385/3/1 364/4/1
f 386/9/1 387/10/1 368/11/1 367/12/1
f 387/1/1 388/2/1 369/3/1 368/4/1
f 388/5/1 389/6/1 370/7/1 369/8/1
f 389/13/1 390/14/1 371/15/1 370/16/1

g mesh_0002
f 2/9/1 5/17/1 8/18/1 3/19/1
f 17/9/1 53/17/1 391/18/1 18/19/1
f 53/9/1 19/17/1 22/18/1 391/19/1
f 392/9/1 58/17/1 393/18/1 394/19/1
f 58/9/1 23/17/1 26/18/1 393/19/1
f 24/9/1 27/17/1 30/18/1 25/19/1
f 46/9/1 47/17/1 9/18/1 6/19/1
f 395/9/1 56/17/1 58/18/1 392/19/1
f 61/9/1 62/17/1 31/18/1 28/19/1
f 396/9/1 80/17/1 56/18/1 395/19/1
f 81/9/1 397/17/1 59/18/1 57/19/1
f 397/9/1 82/17/1 60/18/1 59/19/1
f 87/9/1 88/17/1 66/18/1 65/19/1
f 97/9/1 119/17/1 77/18/1 76/19/1
f 119/9/1 121/17/1 78/18/1 77/19/1
f 121/9/1 123/17/1 79/18/1 78/19/1
f 123/9/1 125/17/1 398/18/1 79/19/1
f 125/9/1 127/17/1 396/18/1 398/19/1
f 127/9/1 98/17/1 80/18/1 396/19/1
f 99/9/1 131/17/1 397/18/1 81/19/1
f 116/9/1 117/17/1 97/18/1 96/19/1
f 135/9/1 136/17/1 104/18/1 103/19/1
f 144/9/1 145/17/1 114/18/1 113/19/1
f 155/9/1 156/17/1 130/18/1 129/19/1
f 157/9/1 183/17/1 133/18/1 132/19/1
f 183/9/1 158/17/1 134/18/1 133/19/1
f 184/9/1 185/17/1 159/18/1 158/19/1
f 214/9/1 213/17/1 165/18/1 164/19/1
f 213/9/1 216/17/1 166/18/1 165/19/1
f 216/9/1 190/17/1 167/18/1 166/19/1
f 221/9/1 193/17/1 171/18/1 170/19/1
f 222/9/1 223/17/1 194/18/1 193/19/1
f 238/9/1 399/17/1 210/18/1 209/19/1
f 257/9/1 258/17/1 235/18/1 234/19/1
f 261/9/1 284/17/1 399/18/1 238/19/1
f 269/9/1 270/17/1 247/18/1 246/19/1
f 275/9/1 276/17/1 255/18/1 254/19/1
f 291/9/1 292/17/1 269/18/1 268/19/1
f 312/9/1 313/17/1 294/18/1 293/19/1
f 324/9/1 325/17/1 296/18/1 295/19/1
f 332/9/1 350/17/1 304/18/1 303/19/1
f 340/9/1 341/17/1 311/18/1 310/19/1
f 342/9/1 400/17/1 313/18/1 312/19/1
f 362/9/1 365/17/1 325/18/1 324/19/1
f 365/9/1 401/17/1 326/18/1 325/19/1
f 401/9/1 343/17/1 327/18/1 326/19/1
f 345/9/1 346/17/1 330/18/1 329/19/1
f 355/9/1 356/17/1 339/18/1 338/19/1
f 359/9/1 402/17/1 400/18/1 342/19/1
f 385/9/1 366/17/1 343/18/1 401/19/1
f 376/9/1 377/17/1 355/18/1 354/19/1
f 381/9/1 403/17/1 402/18/1 359/19/1
f 384/9/1 404/17/1 366/18/1 385/19/1

g mesh_0003
f 19/20/1 20/21/1 21/22/1 22/19/1
f 20/1/1 405/2/1 406/3/1 21/4/1
f 405/1/1 392/2/1 394/3/1 406/4/1
f 54/20/1 55/21/1 20/22/1 19/19/1
f 55/1/1 407/2/1 405/3/1 20/4/1
f 407/1/1 395/2/1 392/3/1 405/4/1
f 57/1/1 59/2/1 24/3/1 23/4/1
f 78/20/1 79/21/1 55/22/1 54/19/1
f 79/1/1 398/2/1 407/3/1 55/4/1
f 398/1/1 396/2/1 395/3/1 407/4/1
f 91/1/1 112/2/1 70/3/1 69/4/1
f 112/1/1 92/2/1 71/3/1 70/4/1
f 94/1/1 95/2/1 74/3/1 73/4/1
f 109/1/1 110/2/1 112/3/1 91/4/1
f 132/1/1 133/2/1 101/3/1 100/4/1
f 185/20/1 186/21/1 160/22/1 159/19/1
f 186/20/1 187/21/1 161/22/1 160/19/1
f 187/20/1 188/21/1 162/22/1 161/19/1
f 188/20/1 189/21/1 163/22/1 162/19/1
f 250/1/1 408/2/1 227/3/1 226/4/1
f 408/1/1 251/2/1 228/3/1 227/4/1
f 258/20/1 259/21/1 236/22/1 235/19/1
f 259/20/1 260/21/1 237/22/1 236/19/1
f 260/20/1 261/21/1 238/22/1 237/19/1
f 264/1/1 265/2/1 242/3/1 241/4/1
f 272/1/1 409/2/1 250/3/1 249/4/1
f 409/1/1 410/2/1 408/3/1 250/4/1
f 410/1/1 411/2/1 251/3/1 408/4/1
f 411/1/1 273/2/1 252/3/1 251/4/1
f 286/1/1 287/2/1 264/3/1 263/4/1
f 294/1/1 315/2/1 272/3/1 271/4/1
f 315/1/1 317/2/1 409/3/1 272/4/1
f 317/1/1 319/2/1 410/3/1 409/4/1
f 319/1/1 321/2/1 411/3/1 410/4/1
f 321/1/1 323/2/1 273/3/1 411/4/1
f 323/1/1 295/2/1 274/3/1 273/4/1
f 306/1/1 336/2/1 287/3/1 286/4/1
f 336/1/1 307/2/1 288/3/1 287/4/1
f 313/20/1 314/21/1 315/22/1 294/19/1
f 314/20/1 316/21/1 317/22/1 315/19/1
f 316/20/1 318/21/1 319/22/1 317/19/1
f 318/20/1 320/21/1 321/22/1 319/19/1
f 320/20/1 322/21/1 323/22/1 321/19/1
f 322/20/1 324/21/1 295/22/1 323/19/1
f 400/1/1 412/2/1 314/3/1 313/4/1
f 412/1/1 413/2/1 316/3/1 314/4/1
f 413/1/1 414/2/1 318/3/1 316/4/1
f 414/1/1 415/2/1 320/3/1 318/4/1
f 415/1/1 363/2/1 322/3/1 320/4/1
f 363/1/1 362/2/1 324/3/1 322/4/1
f 402/1/1 416/2/1 412/3/1 400/4/1
f 416/1/1 417/2/1 413/3/1 412/4/1
f 417/1/1 418/2/1 414/3/1 413/4/1
f 418/1/1 419/2/1 415/3/1 414/4/1
f 419/1/1 360/2/1 363/3/1 415/4/1
f 403/1/1 420/2/1 416/3/1 402/4/1
f 420/1/1 421/2/1 417/3/1 416/4/1
f 421/1/1 422/2/1 418/3/1 417/4/1
f 422/1/1 423/2/1 419/3/1 418/4/1
f 423/1/1 424/2/1 360/3/1 419/4/1
f 424/1/1 382/2/1 361/3/1 360/4/1
f 404/1/1 386/2/1 367/3/1 366/4/1

g mesh_0004
f 131/20/1 100/21/1 82/22/1 397/19/1
f 192/20/1 221/21/1 170/22/1 169/19/1
f 364/20/1 385/21/1 401/22/1 365/19/1
f 390/20/1 425/21/1 372/22/1 371/19/1

