# Wavefront OBJ file automatically generated by Tiled2Unity

# Vertices (Count = 425)
v 0 -0.32 0
v -0.32 -0.32 0
v -0.32 0 0
v 0 0 0
v -0.64 -0.32 0
v -0.64 0 0
v -0.96 -0.32 0
v -0.96 0 0
v -1.28 -0.32 0
v -1.28 0 0
v -1.6 -0.32 0
v -1.6 0 0
v -1.92 -0.32 0
v -1.92 0 0
v -2.24 -0.32 0
v -2.24 0 0
v -2.56 -0.32 0
v -2.56 0 0
v -2.88 -0.32 0
v -2.88 0 0
v -3.2 -0.32 0
v -3.2 0 0
v -3.52 -0.32 0
v -3.52 0 0
v -3.84 -0.32 0
v -3.84 0 0
v -4.16 -0.32 0
v -4.16 0 0
v -4.48 -0.32 0
v -4.48 0 0
v -4.8 -0.32 0
v -4.8 0 0
v -5.12 -0.32 0
v -5.12 0 0
v -5.44 -0.32 0
v -5.44 0 0
v -5.76 -0.32 0
v -5.76 0 0
v -6.08 -0.32 0
v -6.08 0 0
v -6.4 -0.32 0
v -6.4 0 0
v -6.72 -0.32 0
v -6.72 0 0
v -7.04 -0.32 0
v -7.04 0 0
v -7.36 -0.32 0
v -7.36 0 0
v -7.68 -0.32 0
v -7.68 0 0
v 0 -0.64 0
v -0.32 -0.64 0
v -0.64 -0.64 0
v -0.96 -0.64 0
v -1.28 -0.64 0
v -1.6 -0.64 0
v -1.92 -0.64 0
v -2.24 -0.64 0
v -2.56 -0.64 0
v -2.88 -0.64 0
v -3.2 -0.64 0
v -3.52 -0.64 0
v -3.84 -0.64 0
v -4.16 -0.64 0
v -4.48 -0.64 0
v -4.8 -0.64 0
v -5.12 -0.64 0
v -5.44 -0.64 0
v -5.76 -0.64 0
v -6.08 -0.64 0
v -6.4 -0.64 0
v -6.72 -0.64 0
v -7.04 -0.64 0
v -7.36 -0.64 0
v -7.68 -0.64 0
v 0 -0.96 0
v -0.32 -0.96 0
v -0.64 -0.96 0
v -0.96 -0.96 0
v -1.28 -0.96 0
v -1.6 -0.96 0
v -1.92 -0.96 0
v -2.24 -0.96 0
v -2.56 -0.96 0
v -2.88 -0.96 0
v -3.2 -0.96 0
v -3.52 -0.96 0
v -3.84 -0.96 0
v -4.16 -0.96 0
v -4.48 -0.96 0
v -4.8 -0.96 0
v -5.12 -0.96 0
v -5.44 -0.96 0
v -5.76 -0.96 0
v -6.08 -0.96 0
v -6.4 -0.96 0
v -6.72 -0.96 0
v -7.04 -0.96 0
v -7.36 -0.96 0
v -7.68 -0.96 0
v 0 -1.28 0
v -0.32 -1.28 0
v -0.64 -1.28 0
v -0.96 -1.28 0
v -1.28 -1.28 0
v -1.6 -1.28 0
v -1.92 -1.28 0
v -2.24 -1.28 0
v -2.56 -1.28 0
v -2.88 -1.28 0
v -3.2 -1.28 0
v -3.52 -1.28 0
v -3.84 -1.28 0
v -4.16 -1.28 0
v -4.48 -1.28 0
v -4.8 -1.28 0
v -5.12 -1.28 0
v -5.44 -1.28 0
v -5.76 -1.28 0
v -6.08 -1.28 0
v -6.4 -1.28 0
v -6.72 -1.28 0
v -7.04 -1.28 0
v -7.36 -1.28 0
v -7.68 -1.28 0
v 0 -1.6 0
v -0.32 -1.6 0
v -0.64 -1.6 0
v -0.96 -1.6 0
v -1.28 -1.6 0
v -1.6 -1.6 0
v -1.92 -1.6 0
v -2.24 -1.6 0
v -2.56 -1.6 0
v -2.88 -1.6 0
v -3.2 -1.6 0
v -3.52 -1.6 0
v -3.84 -1.6 0
v -4.16 -1.6 0
v -4.48 -1.6 0
v -4.8 -1.6 0
v -5.12 -1.6 0
v -5.44 -1.6 0
v -5.76 -1.6 0
v -6.08 -1.6 0
v -6.4 -1.6 0
v -6.72 -1.6 0
v -7.04 -1.6 0
v -7.36 -1.6 0
v -7.68 -1.6 0
v 0 -1.92 0
v -0.32 -1.92 0
v -0.64 -1.92 0
v -0.96 -1.92 0
v -1.28 -1.92 0
v -1.6 -1.92 0
v -1.92 -1.92 0
v -2.24 -1.92 0
v -2.56 -1.92 0
v -2.88 -1.92 0
v -3.2 -1.92 0
v -3.52 -1.92 0
v -3.84 -1.92 0
v -4.16 -1.92 0
v -4.48 -1.92 0
v -4.8 -1.92 0
v -5.12 -1.92 0
v -5.44 -1.92 0
v -5.76 -1.92 0
v -6.08 -1.92 0
v -6.4 -1.92 0
v -6.72 -1.92 0
v -7.04 -1.92 0
v -7.36 -1.92 0
v -7.68 -1.92 0
v 0 -2.24 0
v -0.32 -2.24 0
v -0.64 -2.24 0
v -0.96 -2.24 0
v -1.28 -2.24 0
v -1.6 -2.24 0
v -1.92 -2.24 0
v -2.24 -2.24 0
v -2.56 -2.24 0
v -2.88 -2.24 0
v -3.2 -2.24 0
v -3.52 -2.24 0
v -3.84 -2.24 0
v -4.16 -2.24 0
v -4.48 -2.24 0
v -4.8 -2.24 0
v -5.12 -2.24 0
v -5.44 -2.24 0
v -5.76 -2.24 0
v -6.08 -2.24 0
v -6.4 -2.24 0
v -6.72 -2.24 0
v -7.04 -2.24 0
v -7.36 -2.24 0
v -7.68 -2.24 0
v 0 -2.56 0
v -0.32 -2.56 0
v -0.64 -2.56 0
v -0.96 -2.56 0
v -1.28 -2.56 0
v -1.6 -2.56 0
v -1.92 -2.56 0
v -2.24 -2.56 0
v -2.56 -2.56 0
v -2.88 -2.56 0
v -3.2 -2.56 0
v -3.52 -2.56 0
v -3.84 -2.56 0
v -4.16 -2.56 0
v -4.48 -2.56 0
v -4.8 -2.56 0
v -5.12 -2.56 0
v -5.44 -2.56 0
v -5.76 -2.56 0
v -6.08 -2.56 0
v -6.4 -2.56 0
v -6.72 -2.56 0
v -7.04 -2.56 0
v -7.36 -2.56 0
v -7.68 -2.56 0
v 0 -2.88 0
v -0.32 -2.88 0
v -0.64 -2.88 0
v -0.96 -2.88 0
v -1.28 -2.88 0
v -1.6 -2.88 0
v -1.92 -2.88 0
v -2.24 -2.88 0
v -2.56 -2.88 0
v -2.88 -2.88 0
v -3.2 -2.88 0
v -3.52 -2.88 0
v -3.84 -2.88 0
v -4.16 -2.88 0
v -4.48 -2.88 0
v -4.8 -2.88 0
v -5.12 -2.88 0
v -5.44 -2.88 0
v -5.76 -2.88 0
v -6.08 -2.88 0
v -6.4 -2.88 0
v -6.72 -2.88 0
v -7.04 -2.88 0
v -7.36 -2.88 0
v -7.68 -2.88 0
v 0 -3.2 0
v -0.32 -3.2 0
v -0.64 -3.2 0
v -0.96 -3.2 0
v -1.28 -3.2 0
v -1.6 -3.2 0
v -1.92 -3.2 0
v -2.24 -3.2 0
v -2.56 -3.2 0
v -2.88 -3.2 0
v -3.2 -3.2 0
v -3.52 -3.2 0
v -3.84 -3.2 0
v -4.16 -3.2 0
v -4.48 -3.2 0
v -4.8 -3.2 0
v -5.12 -3.2 0
v -5.44 -3.2 0
v -5.76 -3.2 0
v -6.08 -3.2 0
v -6.4 -3.2 0
v -6.72 -3.2 0
v -7.04 -3.2 0
v -7.36 -3.2 0
v -7.68 -3.2 0
v 0 -3.52 0
v -0.32 -3.52 0
v -0.64 -3.52 0
v -0.96 -3.52 0
v -1.28 -3.52 0
v -1.6 -3.52 0
v -1.92 -3.52 0
v -2.24 -3.52 0
v -2.56 -3.52 0
v -2.88 -3.52 0
v -3.2 -3.52 0
v -3.52 -3.52 0
v -3.84 -3.52 0
v -4.16 -3.52 0
v -4.48 -3.52 0
v -4.8 -3.52 0
v -5.12 -3.52 0
v -5.44 -3.52 0
v -5.76 -3.52 0
v -6.08 -3.52 0
v -6.4 -3.52 0
v -6.72 -3.52 0
v -7.04 -3.52 0
v -7.36 -3.52 0
v -7.68 -3.52 0
v 0 -3.84 0
v -0.32 -3.84 0
v -0.64 -3.84 0
v -0.96 -3.84 0
v -1.28 -3.84 0
v -1.6 -3.84 0
v -1.92 -3.84 0
v -2.24 -3.84 0
v -2.56 -3.84 0
v -2.88 -3.84 0
v -3.2 -3.84 0
v -3.52 -3.84 0
v -3.84 -3.84 0
v -4.16 -3.84 0
v -4.48 -3.84 0
v -4.8 -3.84 0
v -5.12 -3.84 0
v -5.44 -3.84 0
v -5.76 -3.84 0
v -6.08 -3.84 0
v -6.4 -3.84 0
v -6.72 -3.84 0
v -7.04 -3.84 0
v -7.36 -3.84 0
v -7.68 -3.84 0
v 0 -4.16 0
v -0.32 -4.16 0
v -0.64 -4.16 0
v -0.96 -4.16 0
v -1.28 -4.16 0
v -1.6 -4.16 0
v -1.92 -4.16 0
v -2.24 -4.16 0
v -2.56 -4.16 0
v -2.88 -4.16 0
v -3.2 -4.16 0
v -3.52 -4.16 0
v -3.84 -4.16 0
v -4.16 -4.16 0
v -4.48 -4.16 0
v -4.8 -4.16 0
v -5.12 -4.16 0
v -5.44 -4.16 0
v -5.76 -4.16 0
v -6.08 -4.16 0
v -6.4 -4.16 0
v -6.72 -4.16 0
v -7.04 -4.16 0
v -7.36 -4.16 0
v -7.68 -4.16 0
v 0 -4.48 0
v -0.32 -4.48 0
v -0.64 -4.48 0
v -0.96 -4.48 0
v -1.28 -4.48 0
v -1.6 -4.48 0
v -1.92 -4.48 0
v -2.24 -4.48 0
v -2.56 -4.48 0
v -2.88 -4.48 0
v -3.2 -4.48 0
v -3.52 -4.48 0
v -3.84 -4.48 0
v -4.16 -4.48 0
v -4.48 -4.48 0
v -4.8 -4.48 0
v -5.12 -4.48 0
v -5.44 -4.48 0
v -5.76 -4.48 0
v -6.08 -4.48 0
v -6.4 -4.48 0
v -6.72 -4.48 0
v -7.04 -4.48 0
v -7.36 -4.48 0
v -7.68 -4.48 0
v 0 -4.8 0
v -0.32 -4.8 0
v -0.64 -4.8 0
v -0.96 -4.8 0
v -1.28 -4.8 0
v -1.6 -4.8 0
v -1.92 -4.8 0
v -2.24 -4.8 0
v -2.56 -4.8 0
v -2.88 -4.8 0
v -3.2 -4.8 0
v -3.52 -4.8 0
v -3.84 -4.8 0
v -4.16 -4.8 0
v -4.48 -4.8 0
v -4.8 -4.8 0
v -5.12 -4.8 0
v -5.44 -4.8 0
v -5.76 -4.8 0
v -6.08 -4.8 0
v -6.4 -4.8 0
v -6.72 -4.8 0
v -7.04 -4.8 0
v -7.36 -4.8 0
v -7.68 -4.8 0
v 0 -5.12 0
v -0.32 -5.12 0
v -0.64 -5.12 0
v -0.96 -5.12 0
v -1.28 -5.12 0
v -1.6 -5.12 0
v -1.92 -5.12 0
v -2.24 -5.12 0
v -2.56 -5.12 0
v -2.88 -5.12 0
v -3.2 -5.12 0
v -3.52 -5.12 0
v -3.84 -5.12 0
v -4.16 -5.12 0
v -4.48 -5.12 0
v -4.8 -5.12 0
v -5.12 -5.12 0
v -5.44 -5.12 0
v -5.76 -5.12 0
v -6.08 -5.12 0
v -6.4 -5.12 0
v -6.72 -5.12 0
v -7.04 -5.12 0
v -7.36 -5.12 0
v -7.68 -5.12 0

# Texture cooridinates (Count = 22)
vt 0.3334554 0.3334554
vt 0.6665446 0.3334554
vt 0.6665446 0.4998779
vt 0.3334554 0.4998779
vt 0.6667888 0.0001220703
vt 0.9998779 0.0001220703
vt 0.9998779 0.1665446
vt 0.6667888 0.1665446
vt 0.0001220703 0.0001220703
vt 0.3332113 0.0001220703
vt 0.3332113 0.1665446
vt 0.0001220703 0.1665446
vt 0.3334554 0.0001220703
vt 0.6665446 0.0001220703
vt 0.6665446 0.1665446
vt 0.3334554 0.1665446
vt 0.4998779 0.0001220703
vt 0.4998779 0.9998779
vt 0.0001220703 0.9998779
vt 0.0001220703 0.8334554
vt 0.3332113 0.8334554
vt 0.3332113 0.9998779

# Normal
vn 0 0 -1

# Groups (Count = 2)

g mesh_0001
f 1/1/1 2/2/1 3/3/1 4/4/1
f 2/5/1 5/6/1 6/7/1 3/8/1
f 5/5/1 7/6/1 8/7/1 6/8/1
f 7/9/1 9/10/1 10/11/1 8/12/1
f 9/9/1 11/10/1 12/11/1 10/12/1
f 11/9/1 13/10/1 14/11/1 12/12/1
f 13/5/1 15/6/1 16/7/1 14/8/1
f 15/1/1 17/2/1 18/3/1 16/4/1
f 17/5/1 19/6/1 20/7/1 18/8/1
f 19/13/1 21/14/1 22/15/1 20/16/1
f 21/13/1 23/14/1 24/15/1 22/16/1
f 23/1/1 25/2/1 26/3/1 24/4/1
f 25/5/1 27/6/1 28/7/1 26/8/1
f 27/9/1 29/10/1 30/11/1 28/12/1
f 29/1/1 31/2/1 32/3/1 30/4/1
f 31/9/1 33/10/1 34/11/1 32/12/1
f 33/13/1 35/14/1 36/15/1 34/16/1
f 35/5/1 37/6/1 38/7/1 36/8/1
f 37/9/1 39/10/1 40/11/1 38/12/1
f 39/9/1 41/10/1 42/11/1 40/12/1
f 41/5/1 43/6/1 44/7/1 42/8/1
f 43/9/1 45/10/1 46/11/1 44/12/1
f 45/5/1 47/6/1 48/7/1 46/8/1
f 47/5/1 49/6/1 50/7/1 48/8/1
f 51/9/1 52/10/1 2/11/1 1/12/1
f 52/5/1 53/6/1 5/7/1 2/8/1
f 53/5/1 54/6/1 7/7/1 5/8/1
f 54/5/1 55/6/1 9/7/1 7/8/1
f 55/5/1 56/6/1 11/7/1 9/8/1
f 56/13/1 57/14/1 13/15/1 11/16/1
f 57/1/1 58/2/1 15/3/1 13/4/1
f 58/1/1 59/2/1 17/3/1 15/4/1
f 59/9/1 60/10/1 19/11/1 17/12/1
f 60/1/1 61/2/1 21/3/1 19/4/1
f 61/13/1 62/14/1 23/15/1 21/16/1
f 62/5/1 63/6/1 25/7/1 23/8/1
f 63/5/1 64/6/1 27/7/1 25/8/1
f 64/9/1 65/10/1 29/11/1 27/12/1
f 65/5/1 66/6/1 31/7/1 29/8/1
f 66/5/1 67/6/1 33/7/1 31/8/1
f 67/9/1 68/10/1 35/11/1 33/12/1
f 68/5/1 69/6/1 37/7/1 35/8/1
f 69/13/1 70/14/1 39/15/1 37/16/1
f 70/5/1 71/6/1 41/7/1 39/8/1
f 71/5/1 72/6/1 43/7/1 41/8/1
f 72/9/1 73/10/1 45/11/1 43/12/1
f 73/5/1 74/6/1 47/7/1 45/8/1
f 74/9/1 75/10/1 49/11/1 47/12/1
f 76/5/1 77/6/1 52/7/1 51/8/1
f 77/9/1 78/10/1 53/11/1 52/12/1
f 78/5/1 79/6/1 54/7/1 53/8/1
f 79/13/1 80/14/1 55/15/1 54/16/1
f 80/1/1 81/2/1 56/3/1 55/4/1
f 81/5/1 82/6/1 57/7/1 56/8/1
f 82/9/1 83/10/1 58/11/1 57/12/1
f 83/1/1 84/2/1 59/3/1 58/4/1
f 84/5/1 85/6/1 60/7/1 59/8/1
f 85/5/1 86/6/1 61/7/1 60/8/1
f 86/13/1 87/14/1 62/15/1 61/16/1
f 87/1/1 88/2/1 63/3/1 62/4/1
f 88/9/1 89/10/1 64/11/1 63/12/1
f 89/9/1 90/10/1 65/11/1 64/12/1
f 90/13/1 91/14/1 66/15/1 65/16/1
f 91/13/1 92/14/1 67/15/1 66/16/1
f 92/5/1 93/6/1 68/7/1 67/8/1
f 93/9/1 94/10/1 69/11/1 68/12/1
f 94/9/1 95/10/1 70/11/1 69/12/1
f 95/5/1 96/6/1 71/7/1 70/8/1
f 96/1/1 97/2/1 72/3/1 71/4/1
f 97/1/1 98/2/1 73/3/1 72/4/1
f 98/5/1 99/6/1 74/7/1 73/8/1
f 99/1/1 100/2/1 75/3/1 74/4/1
f 101/1/1 102/2/1 77/3/1 76/4/1
f 102/1/1 103/2/1 78/3/1 77/4/1
f 103/9/1 104/10/1 79/11/1 78/12/1
f 104/9/1 105/10/1 80/11/1 79/12/1
f 105/9/1 106/10/1 81/11/1 80/12/1
f 106/1/1 107/2/1 82/3/1 81/4/1
f 107/5/1 108/6/1 83/7/1 82/8/1
f 108/9/1 109/10/1 84/11/1 83/12/1
f 109/5/1 110/6/1 85/7/1 84/8/1
f 110/1/1 111/2/1 86/3/1 85/4/1
f 111/13/1 112/14/1 87/15/1 86/16/1
f 112/9/1 113/10/1 88/11/1 87/12/1
f 113/9/1 114/10/1 89/11/1 88/12/1
f 114/13/1 115/14/1 90/15/1 89/16/1
f 115/9/1 116/10/1 91/11/1 90/12/1
f 116/9/1 117/10/1 92/11/1 91/12/1
f 117/1/1 118/2/1 93/3/1 92/4/1
f 118/9/1 119/10/1 94/11/1 93/12/1
f 119/9/1 120/10/1 95/11/1 94/12/1
f 120/5/1 121/6/1 96/7/1 95/8/1
f 121/5/1 122/6/1 97/7/1 96/8/1
f 122/13/1 123/14/1 98/15/1 97/16/1
f 123/5/1 124/6/1 99/7/1 98/8/1
f 124/1/1 125/2/1 100/3/1 99/4/1
f 126/13/1 127/14/1 102/15/1 101/16/1
f 127/9/1 128/10/1 103/11/1 102/12/1
f 128/9/1 129/10/1 104/11/1 103/12/1
f 129/9/1 130/10/1 105/11/1 104/12/1
f 130/9/1 131/10/1 106/11/1 105/12/1
f 131/9/1 132/10/1 107/11/1 106/12/1
f 132/9/1 133/10/1 108/11/1 107/12/1
f 133/13/1 134/14/1 109/15/1 108/16/1
f 134/5/1 135/6/1 110/7/1 109/8/1
f 135/1/1 136/2/1 111/3/1 110/4/1
f 136/5/1 137/6/1 112/7/1 111/8/1
f 137/1/1 138/2/1 113/3/1 112/4/1
f 138/1/1 139/2/1 114/3/1 113/4/1
f 139/5/1 140/6/1 115/7/1 114/8/1
f 140/5/1 141/6/1 116/7/1 115/8/1
f 141/13/1 142/14/1 117/15/1 116/16/1
f 142/5/1 143/6/1 118/7/1 117/8/1
f 143/13/1 144/14/1 119/15/1 118/16/1
f 144/1/1 145/2/1 120/3/1 119/4/1
f 145/1/1 146/2/1 121/3/1 120/4/1
f 146/1/1 147/2/1 122/3/1 121/4/1
f 147/13/1 148/14/1 123/15/1 122/16/1
f 148/1/1 149/2/1 124/3/1 123/4/1
f 149/9/1 150/10/1 125/11/1 124/12/1
f 151/5/1 152/6/1 127/7/1 126/8/1
f 152/9/1 153/10/1 128/11/1 127/12/1
f 153/1/1 154/2/1 129/3/1 128/4/1
f 154/9/1 155/10/1 130/11/1 129/12/1
f 155/9/1 156/10/1 131/11/1 130/12/1
f 156/1/1 157/2/1 132/3/1 131/4/1
f 157/13/1 158/14/1 133/15/1 132/16/1
f 158/5/1 159/6/1 134/7/1 133/8/1
f 159/1/1 160/2/1 135/3/1 134/4/1
f 160/9/1 161/10/1 136/11/1 135/12/1
f 161/9/1 162/10/1 137/11/1 136/12/1
f 162/1/1 163/2/1 138/3/1 137/4/1
f 163/1/1 164/2/1 139/3/1 138/4/1
f 164/9/1 165/10/1 140/11/1 139/12/1
f 165/5/1 166/6/1 141/7/1 140/8/1
f 166/9/1 167/10/1 142/11/1 141/12/1
f 167/9/1 168/10/1 143/11/1 142/12/1
f 168/5/1 169/6/1 144/7/1 143/8/1
f 169/1/1 170/2/1 145/3/1 144/4/1
f 170/1/1 171/2/1 146/3/1 145/4/1
f 171/9/1 172/10/1 147/11/1 146/12/1
f 172/13/1 173/14/1 148/15/1 147/16/1
f 173/5/1 174/6/1 149/7/1 148/8/1
f 174/13/1 175/14/1 150/15/1 149/16/1
f 176/5/1 177/6/1 152/7/1 151/8/1
f 177/5/1 178/6/1 153/7/1 152/8/1
f 178/13/1 179/14/1 154/15/1 153/16/1
f 179/13/1 180/14/1 155/15/1 154/16/1
f 180/9/1 181/10/1 156/11/1 155/12/1
f 181/13/1 182/14/1 157/15/1 156/16/1
f 182/9/1 183/10/1 158/11/1 157/12/1
f 183/1/1 184/2/1 159/3/1 158/4/1
f 184/9/1 185/10/1 160/11/1 159/12/1
f 185/1/1 186/2/1 161/3/1 160/4/1
f 186/13/1 187/14/1 162/15/1 161/16/1
f 187/1/1 188/2/1 163/3/1 162/4/1
f 188/1/1 189/2/1 164/3/1 163/4/1
f 189/5/1 190/6/1 165/7/1 164/8/1
f 190/13/1 191/14/1 166/15/1 165/16/1
f 191/5/1 192/6/1 167/7/1 166/8/1
f 192/1/1 193/2/1 168/3/1 167/4/1
f 193/1/1 194/2/1 169/3/1 168/4/1
f 194/1/1 195/2/1 170/3/1 169/4/1
f 195/13/1 196/14/1 171/15/1 170/16/1
f 196/9/1 197/10/1 172/11/1 171/12/1
f 197/9/1 198/10/1 173/11/1 172/12/1
f 198/5/1 199/6/1 174/7/1 173/8/1
f 199/1/1 200/2/1 175/3/1 174/4/1
f 201/5/1 202/6/1 177/7/1 176/8/1
f 202/9/1 203/10/1 178/11/1 177/12/1
f 203/1/1 204/2/1 179/3/1 178/4/1
f 204/5/1 205/6/1 180/7/1 179/8/1
f 205/5/1 206/6/1 181/7/1 180/8/1
f 206/9/1 207/10/1 182/11/1 181/12/1
f 207/13/1 208/14/1 183/15/1 182/16/1
f 208/9/1 209/10/1 184/11/1 183/12/1
f 209/13/1 210/14/1 185/15/1 184/16/1
f 210/13/1 211/14/1 186/15/1 185/16/1
f 211/5/1 212/6/1 187/7/1 186/8/1
f 212/5/1 213/6/1 188/7/1 187/8/1
f 213/5/1 214/6/1 189/7/1 188/8/1
f 214/1/1 215/2/1 190/3/1 189/4/1
f 215/9/1 216/10/1 191/11/1 190/12/1
f 216/1/1 217/2/1 192/3/1 191/4/1
f 217/13/1 218/14/1 193/15/1 192/16/1
f 218/5/1 219/6/1 194/7/1 193/8/1
f 219/9/1 220/10/1 195/11/1 194/12/1
f 220/5/1 221/6/1 196/7/1 195/8/1
f 221/5/1 222/6/1 197/7/1 196/8/1
f 222/13/1 223/14/1 198/15/1 197/16/1
f 223/9/1 224/10/1 199/11/1 198/12/1
f 224/13/1 225/14/1 200/15/1 199/16/1
f 226/13/1 227/14/1 202/15/1 201/16/1
f 227/5/1 228/6/1 203/7/1 202/8/1
f 228/13/1 229/14/1 204/15/1 203/16/1
f 229/5/1 230/6/1 205/7/1 204/8/1
f 230/5/1 231/6/1 206/7/1 205/8/1
f 231/13/1 232/14/1 207/15/1 206/16/1
f 232/1/1 233/2/1 208/3/1 207/4/1
f 233/1/1 234/2/1 209/3/1 208/4/1
f 234/5/1 235/6/1 210/7/1 209/8/1
f 235/9/1 236/10/1 211/11/1 210/12/1
f 236/13/1 237/14/1 212/15/1 211/16/1
f 237/1/1 238/2/1 213/3/1 212/4/1
f 238/9/1 239/10/1 214/11/1 213/12/1
f 239/9/1 240/10/1 215/11/1 214/12/1
f 240/1/1 241/2/1 216/3/1 215/4/1
f 241/13/1 242/14/1 217/15/1 216/16/1
f 242/1/1 243/2/1 218/3/1 217/4/1
f 243/5/1 244/6/1 219/7/1 218/8/1
f 244/9/1 245/10/1 220/11/1 219/12/1
f 245/1/1 246/2/1 221/3/1 220/4/1
f 246/5/1 247/6/1 222/7/1 221/8/1
f 247/9/1 248/10/1 223/11/1 222/12/1
f 248/1/1 249/2/1 224/3/1 223/4/1
f 249/1/1 250/2/1 225/3/1 224/4/1
f 251/5/1 252/6/1 227/7/1 226/8/1
f 252/13/1 253/14/1 228/15/1 227/16/1
f 253/5/1 254/6/1 229/7/1 228/8/1
f 254/9/1 255/10/1 230/11/1 229/12/1
f 255/1/1 256/2/1 231/3/1 230/4/1
f 256/5/1 257/6/1 232/7/1 231/8/1
f 257/9/1 258/10/1 233/11/1 232/12/1
f 258/13/1 259/14/1 234/15/1 233/16/1
f 259/5/1 260/6/1 235/7/1 234/8/1
f 260/13/1 261/14/1 236/15/1 235/16/1
f 261/5/1 262/6/1 237/7/1 236/8/1
f 262/13/1 263/14/1 238/15/1 237/16/1
f 263/9/1 264/10/1 239/11/1 238/12/1
f 264/9/1 265/10/1 240/11/1 239/12/1
f 265/1/1 266/2/1 241/3/1 240/4/1
f 266/1/1 267/2/1 242/3/1 241/4/1
f 267/13/1 268/14/1 243/15/1 242/16/1
f 268/1/1 269/2/1 244/3/1 243/4/1
f 269/1/1 270/2/1 245/3/1 244/4/1
f 270/9/1 271/10/1 246/11/1 245/12/1
f 271/13/1 272/14/1 247/15/1 246/16/1
f 272/9/1 273/10/1 248/11/1 247/12/1
f 273/9/1 274/10/1 249/11/1 248/12/1
f 274/1/1 275/2/1 250/3/1 249/4/1
f 276/5/1 277/6/1 252/7/1 251/8/1
f 277/13/1 278/14/1 253/15/1 252/16/1
f 278/9/1 279/10/1 254/11/1 253/12/1
f 279/5/1 280/6/1 255/7/1 254/8/1
f 280/5/1 281/6/1 256/7/1 255/8/1
f 281/5/1 282/6/1 257/7/1 256/8/1
f 282/9/1 283/10/1 258/11/1 257/12/1
f 283/9/1 284/10/1 259/11/1 258/12/1
f 284/9/1 285/10/1 260/11/1 259/12/1
f 285/9/1 286/10/1 261/11/1 260/12/1
f 286/1/1 287/2/1 262/3/1 261/4/1
f 287/5/1 288/6/1 263/7/1 262/8/1
f 288/9/1 289/10/1 264/11/1 263/12/1
f 289/5/1 290/6/1 265/7/1 264/8/1
f 290/13/1 291/14/1 266/15/1 265/16/1
f 291/5/1 292/6/1 267/7/1 266/8/1
f 292/1/1 293/2/1 268/3/1 267/4/1
f 293/9/1 294/10/1 269/11/1 268/12/1
f 294/9/1 295/10/1 270/11/1 269/12/1
f 295/1/1 296/2/1 271/3/1 270/4/1
f 296/9/1 297/10/1 272/11/1 271/12/1
f 297/13/1 298/14/1 273/15/1 272/16/1
f 298/13/1 299/14/1 274/15/1 273/16/1
f 299/5/1 300/6/1 275/7/1 274/8/1
f 301/5/1 302/6/1 277/7/1 276/8/1
f 302/5/1 303/6/1 278/7/1 277/8/1
f 303/1/1 304/2/1 279/3/1 278/4/1
f 304/5/1 305/6/1 280/7/1 279/8/1
f 305/5/1 306/6/1 281/7/1 280/8/1
f 306/9/1 307/10/1 282/11/1 281/12/1
f 307/9/1 308/10/1 283/11/1 282/12/1
f 308/13/1 309/14/1 284/15/1 283/16/1
f 309/13/1 310/14/1 285/15/1 284/16/1
f 310/1/1 311/2/1 286/3/1 285/4/1
f 311/1/1 312/2/1 287/3/1 286/4/1
f 312/9/1 313/10/1 288/11/1 287/12/1
f 313/9/1 314/10/1 289/11/1 288/12/1
f 314/13/1 315/14/1 290/15/1 289/16/1
f 315/9/1 316/10/1 291/11/1 290/12/1
f 316/9/1 317/10/1 292/11/1 291/12/1
f 317/1/1 318/2/1 293/3/1 292/4/1
f 318/13/1 319/14/1 294/15/1 293/16/1
f 319/5/1 320/6/1 295/7/1 294/8/1
f 320/9/1 321/10/1 296/11/1 295/12/1
f 321/5/1 322/6/1 297/7/1 296/8/1
f 322/13/1 323/14/1 298/15/1 297/16/1
f 323/13/1 324/14/1 299/15/1 298/16/1
f 324/5/1 325/6/1 300/7/1 299/8/1
f 326/9/1 327/10/1 302/11/1 301/12/1
f 327/13/1 328/14/1 303/15/1 302/16/1
f 328/1/1 329/2/1 304/3/1 303/4/1
f 329/1/1 330/2/1 305/3/1 304/4/1
f 330/9/1 331/10/1 306/11/1 305/12/1
f 331/9/1 332/10/1 307/11/1 306/12/1
f 332/13/1 333/14/1 308/15/1 307/16/1
f 333/13/1 334/14/1 309/15/1 308/16/1
f 334/1/1 335/2/1 310/3/1 309/4/1
f 335/5/1 336/6/1 311/7/1 310/8/1
f 336/5/1 337/6/1 312/7/1 311/8/1
f 337/5/1 338/6/1 313/7/1 312/8/1
f 338/13/1 339/14/1 314/15/1 313/16/1
f 339/13/1 340/14/1 315/15/1 314/16/1
f 340/13/1 341/14/1 316/15/1 315/16/1
f 341/13/1 342/14/1 317/15/1 316/16/1
f 342/1/1 343/2/1 318/3/1 317/4/1
f 343/5/1 344/6/1 319/7/1 318/8/1
f 344/1/1 345/2/1 320/3/1 319/4/1
f 345/9/1 346/10/1 321/11/1 320/12/1
f 346/1/1 347/2/1 322/3/1 321/4/1
f 347/1/1 348/2/1 323/3/1 322/4/1
f 348/5/1 349/6/1 324/7/1 323/8/1
f 349/5/1 350/6/1 325/7/1 324/8/1
f 351/5/1 352/6/1 327/7/1 326/8/1
f 352/13/1 353/14/1 328/15/1 327/16/1
f 353/9/1 354/10/1 329/11/1 328/12/1
f 354/1/1 355/2/1 330/3/1 329/4/1
f 355/5/1 356/6/1 331/7/1 330/8/1
f 356/9/1 357/10/1 332/11/1 331/12/1
f 357/13/1 358/14/1 333/15/1 332/16/1
f 358/13/1 359/14/1 334/15/1 333/16/1
f 359/5/1 360/6/1 335/7/1 334/8/1
f 360/13/1 361/14/1 336/15/1 335/16/1
f 361/1/1 362/2/1 337/3/1 336/4/1
f 362/9/1 363/10/1 338/11/1 337/12/1
f 363/9/1 364/10/1 339/11/1 338/12/1
f 364/9/1 365/10/1 340/11/1 339/12/1
f 365/5/1 366/6/1 341/7/1 340/8/1
f 366/9/1 367/10/1 342/11/1 341/12/1
f 367/1/1 368/2/1 343/3/1 342/4/1
f 368/13/1 369/14/1 344/15/1 343/16/1
f 369/5/1 370/6/1 345/7/1 344/8/1
f 370/13/1 371/14/1 346/15/1 345/16/1
f 371/5/1 372/6/1 347/7/1 346/8/1
f 372/5/1 373/6/1 348/7/1 347/8/1
f 373/5/1 374/6/1 349/7/1 348/8/1
f 374/1/1 375/2/1 350/3/1 349/4/1
f 376/9/1 377/10/1 352/11/1 351/12/1
f 377/1/1 378/2/1 353/3/1 352/4/1
f 378/13/1 379/14/1 354/15/1 353/16/1
f 379/1/1 380/2/1 355/3/1 354/4/1
f 380/9/1 381/10/1 356/11/1 355/12/1
f 381/13/1 382/14/1 357/15/1 356/16/1
f 382/5/1 383/6/1 358/7/1 357/8/1
f 383/13/1 384/14/1 359/15/1 358/16/1
f 384/9/1 385/10/1 360/11/1 359/12/1
f 385/5/1 386/6/1 361/7/1 360/8/1
f 386/5/1 387/6/1 362/7/1 361/8/1
f 387/1/1 388/2/1 363/3/1 362/4/1
f 388/9/1 389/10/1 364/11/1 363/12/1
f 389/1/1 390/2/1 365/3/1 364/4/1
f 390/5/1 391/6/1 366/7/1 365/8/1
f 391/5/1 392/6/1 367/7/1 366/8/1
f 392/1/1 393/2/1 368/3/1 367/4/1
f 393/9/1 394/10/1 369/11/1 368/12/1
f 394/9/1 395/10/1 370/11/1 369/12/1
f 395/9/1 396/10/1 371/11/1 370/12/1
f 396/1/1 397/2/1 372/3/1 371/4/1
f 397/5/1 398/6/1 373/7/1 372/8/1
f 398/9/1 399/10/1 374/11/1 373/12/1
f 399/5/1 400/6/1 375/7/1 374/8/1
f 401/5/1 402/6/1 377/7/1 376/8/1
f 402/9/1 403/10/1 378/11/1 377/12/1
f 403/5/1 404/6/1 379/7/1 378/8/1
f 404/1/1 405/2/1 380/3/1 379/4/1
f 405/5/1 406/6/1 381/7/1 380/8/1
f 406/5/1 407/6/1 382/7/1 381/8/1
f 407/13/1 408/14/1 383/15/1 382/16/1
f 408/9/1 409/10/1 384/11/1 383/12/1
f 409/5/1 410/6/1 385/7/1 384/8/1
f 410/13/1 411/14/1 386/15/1 385/16/1
f 411/9/1 412/10/1 387/11/1 386/12/1
f 412/1/1 413/2/1 388/3/1 387/4/1
f 413/13/1 414/14/1 389/15/1 388/16/1
f 414/9/1 415/10/1 390/11/1 389/12/1
f 415/1/1 416/2/1 391/3/1 390/4/1
f 416/1/1 417/2/1 392/3/1 391/4/1
f 417/1/1 418/2/1 393/3/1 392/4/1
f 418/9/1 419/10/1 394/11/1 393/12/1
f 419/9/1 420/10/1 395/11/1 394/12/1
f 420/9/1 421/10/1 396/11/1 395/12/1
f 421/1/1 422/2/1 397/3/1 396/4/1
f 422/5/1 423/6/1 398/7/1 397/8/1
f 423/13/1 424/14/1 399/15/1 398/16/1
f 424/5/1 425/6/1 400/7/1 399/8/1

g mesh_0002
f 2/9/1 5/17/1 6/18/1 3/19/1
f 17/9/1 19/17/1 20/18/1 18/19/1
f 19/9/1 21/17/1 22/18/1 20/19/1
f 27/9/1 29/17/1 30/18/1 28/19/1
f 29/9/1 31/17/1 32/18/1 30/19/1
f 33/9/1 35/17/1 36/18/1 34/19/1
f 54/9/1 55/17/1 9/18/1 7/19/1
f 64/9/1 65/17/1 29/18/1 27/19/1
f 69/9/1 70/17/1 39/18/1 37/19/1
f 89/9/1 90/17/1 65/18/1 64/19/1
f 91/9/1 92/17/1 67/18/1 66/19/1
f 92/9/1 93/17/1 68/18/1 67/19/1
f 98/9/1 99/17/1 74/18/1 73/19/1
f 109/9/1 110/17/1 85/18/1 84/19/1
f 110/9/1 111/17/1 86/18/1 85/19/1
f 111/9/1 112/17/1 87/18/1 86/19/1
f 112/9/1 113/17/1 88/18/1 87/19/1
f 113/9/1 114/17/1 89/18/1 88/19/1
f 114/9/1 115/17/1 90/18/1 89/19/1
f 116/9/1 117/17/1 92/18/1 91/19/1
f 133/9/1 134/17/1 109/18/1 108/19/1
f 146/9/1 147/17/1 122/18/1 121/19/1
f 155/9/1 156/17/1 131/18/1 130/19/1
f 166/9/1 167/17/1 142/18/1 141/19/1
f 168/9/1 169/17/1 144/18/1 143/19/1
f 169/9/1 170/17/1 145/18/1 144/19/1
f 195/9/1 196/17/1 171/18/1 170/19/1
f 201/9/1 202/17/1 177/18/1 176/19/1
f 202/9/1 203/17/1 178/18/1 177/19/1
f 203/9/1 204/17/1 179/18/1 178/19/1
f 207/9/1 208/17/1 183/18/1 182/19/1
f 233/9/1 234/17/1 209/18/1 208/19/1
f 249/9/1 250/17/1 225/18/1 224/19/1
f 270/9/1 271/17/1 246/18/1 245/19/1
f 274/9/1 275/17/1 250/18/1 249/19/1
f 283/9/1 284/17/1 259/18/1 258/19/1
f 292/9/1 293/17/1 268/18/1 267/19/1
f 307/9/1 308/17/1 283/18/1 282/19/1
f 334/9/1 335/17/1 310/18/1 309/19/1
f 341/9/1 342/17/1 317/18/1 316/19/1
f 349/9/1 350/17/1 325/18/1 324/19/1
f 357/9/1 358/17/1 333/18/1 332/19/1
f 359/9/1 360/17/1 335/18/1 334/19/1
f 366/9/1 367/17/1 342/18/1 341/19/1
f 367/9/1 368/17/1 343/18/1 342/19/1
f 368/9/1 369/17/1 344/18/1 343/19/1
f 371/9/1 372/17/1 347/18/1 346/19/1
f 380/9/1 381/17/1 356/18/1 355/19/1
f 384/9/1 385/17/1 360/18/1 359/19/1
f 393/9/1 394/17/1 369/18/1 368/19/1
f 404/9/1 405/17/1 380/18/1 379/19/1
f 409/9/1 410/17/1 385/18/1 384/19/1
f 418/9/1 419/17/1 394/18/1 393/19/1

g mesh_0003
f 21/20/1 23/21/1 24/22/1 22/19/1
f 23/1/1 25/2/1 26/3/1 24/4/1
f 25/1/1 27/2/1 28/3/1 26/4/1
f 61/20/1 62/21/1 23/22/1 21/19/1
f 62/1/1 63/2/1 25/3/1 23/4/1
f 63/1/1 64/2/1 27/3/1 25/4/1
f 66/1/1 67/2/1 33/3/1 31/4/1
f 86/20/1 87/21/1 62/22/1 61/19/1
f 87/1/1 88/2/1 63/3/1 62/4/1
f 88/1/1 89/2/1 64/3/1 63/4/1
f 102/1/1 103/2/1 78/3/1 77/4/1
f 103/1/1 104/2/1 79/3/1 78/4/1
f 106/1/1 107/2/1 82/3/1 81/4/1
f 127/1/1 128/2/1 103/3/1 102/4/1
f 143/1/1 144/2/1 119/3/1 118/4/1
f 196/20/1 197/21/1 172/22/1 171/19/1
f 197/20/1 198/21/1 173/22/1 172/19/1
f 198/20/1 199/21/1 174/22/1 173/19/1
f 199/20/1 200/21/1 175/22/1 174/19/1
f 262/1/1 263/2/1 238/3/1 237/4/1
f 263/1/1 264/2/1 239/3/1 238/4/1
f 271/20/1 272/21/1 247/22/1 246/19/1
f 272/20/1 273/21/1 248/22/1 247/19/1
f 273/20/1 274/21/1 249/22/1 248/19/1
f 278/1/1 279/2/1 254/3/1 253/4/1
f 286/1/1 287/2/1 262/3/1 261/4/1
f 287/1/1 288/2/1 263/3/1 262/4/1
f 288/1/1 289/2/1 264/3/1 263/4/1
f 289/1/1 290/2/1 265/3/1 264/4/1
f 302/1/1 303/2/1 278/3/1 277/4/1
f 310/1/1 311/2/1 286/3/1 285/4/1
f 311/1/1 312/2/1 287/3/1 286/4/1
f 312/1/1 313/2/1 288/3/1 287/4/1
f 313/1/1 314/2/1 289/3/1 288/4/1
f 314/1/1 315/2/1 290/3/1 289/4/1
f 315/1/1 316/2/1 291/3/1 290/4/1
f 327/1/1 328/2/1 303/3/1 302/4/1
f 328/1/1 329/2/1 304/3/1 303/4/1
f 335/20/1 336/21/1 311/22/1 310/19/1
f 336/20/1 337/21/1 312/22/1 311/19/1
f 337/20/1 338/21/1 313/22/1 312/19/1
f 338/20/1 339/21/1 314/22/1 313/19/1
f 339/20/1 340/21/1 315/22/1 314/19/1
f 340/20/1 341/21/1 316/22/1 315/19/1
f 360/1/1 361/2/1 336/3/1 335/4/1
f 361/1/1 362/2/1 337/3/1 336/4/1
f 362/1/1 363/2/1 338/3/1 337/4/1
f 363/1/1 364/2/1 339/3/1 338/4/1
f 364/1/1 365/2/1 340/3/1 339/4/1
f 365/1/1 366/2/1 341/3/1 340/4/1
f 385/1/1 386/2/1 361/3/1 360/4/1
f 386/1/1 387/2/1 362/3/1 361/4/1
f 387/1/1 388/2/1 363/3/1 362/4/1
f 388/1/1 389/2/1 364/3/1 363/4/1
f 389/1/1 390/2/1 365/3/1 364/4/1
f 410/1/1 411/2/1 386/3/1 385/4/1
f 411/1/1 412/2/1 387/3/1 386/4/1
f 412/1/1 413/2/1 388/3/1 387/4/1
f 413/1/1 414/2/1 389/3/1 388/4/1
f 414/1/1 415/2/1 390/3/1 389/4/1
f 415/1/1 416/2/1 391/3/1 390/4/1
f 419/1/1 420/2/1 395/3/1 394/4/1

g mesh_0004
f 117/20/1 118/21/1 93/22/1 92/19/1
f 206/20/1 207/21/1 182/22/1 181/19/1
f 392/20/1 393/21/1 368/22/1 367/19/1
f 424/20/1 425/21/1 400/22/1 399/19/1

